PathFileType	4	(X/Y/Z)	c:/Users/goper/Files/vsCode/490R/osim_files/C11/C11_Slow_01.trc
DataRate	CameraRate	NumFrames	NumMarkers	Units                	OrigDataRate	OrigDataStartFrame	OrigNumFrames
120.00	120.00	9	36	mm	120.0	1303	1737
                Frame#	Time	LPSIS			LASIS			LTH1			LTH2			LTH3			LTH4			LLFE			LMFE			LSH1			LSH2			LSH3			LSH4			LLMAL			LMMAL			LCAL			LMTP5			LTOE			LMTP1			RPSIS			RASIS			RTH1			RTH2			RTH3			RTH4			RLFE			RMFE			RSH1			RSH2			RSH3			RSH4			RLMAL			RMMAL			RCAL			RMTP1			RTOE			RMTP5		
		X1	Y1	Z1	X2	Y2	Z2	X3	Y3	Z3	X4	Y4	Z4	X5	Y5	Z5	X6	Y6	Z6	X7	Y7	Z7	X8	Y8	Z8	X9	Y9	Z9	X10	Y10	Z10	X11	Y11	Z11	X12	Y12	Z12	X13	Y13	Z13	X14	Y14	Z14	X15	Y15	Z15	X16	Y16	Z16	X17	Y17	Z17	X18	Y18	Z18	X19	Y19	Z19	X20	Y20	Z20	X21	Y21	Z21	X22	Y22	Z22	X23	Y23	Z23	X24	Y24	Z24	X25	Y25	Z25	X26	Y26	Z26	X27	Y27	Z27	X28	Y28	Z28	X29	Y29	Z29	X30	Y30	Z30	X31	Y31	Z31	X32	Y32	Z32	X33	Y33	Z33	X34	Y34	Z34	X35	Y35	Z35	X36	Y36	Z36

1303	10.85000	-3468.47046	972.50049	299.83502	-3649.57373	975.10345	369.89526	-3553.90918	585.87799	416.32007	-3543.87378	541.13770	410.18747	-3496.42310	596.78558	404.26221	-3493.63550	549.31073	402.21655	0.00000	0.00000	0.00000	-3494.55200	478.39413	401.50854	-3399.85864	422.86115	422.24762	-3371.25439	386.41501	421.22299	0.00000	0.00000	0.00000	-3408.60889	350.48282	420.47388	-3216.11255	155.05437	375.18384	-3248.07056	160.30452	281.06284	-3149.36816	147.85426	321.59723	-3290.39648	54.85566	403.13565	-3360.89307	62.20725	335.88248	-3325.03760	54.74035	288.99326	-3470.28809	984.92480	218.86812	-3633.87378	969.01697	137.48962	0.00000	0.00000	0.00000	-3723.89087	580.86963	96.48106	-3743.60156	652.45941	107.96241	-3756.49341	611.53705	112.01904	-3763.77417	523.43060	119.73582	-3736.93945	490.53940	224.30983	-3725.55420	402.62195	99.54797	0.00000	0.00000	0.00000	-3788.25464	414.99316	108.43667	-3794.42896	368.51425	107.39883	-3811.00879	109.14559	142.16669	-3828.65161	116.55875	233.20682	-3743.01538	69.51769	191.63637	-3964.69141	71.21054	222.71103	-3968.64453	84.43439	172.29315	-3927.65674	51.98635	109.38269
1304	10.85833	-3478.65186	972.21478	298.59750	-3660.14990	974.72839	368.34698	-3569.66479	583.87433	414.30222	-3560.09009	538.87952	408.23831	-3512.15991	594.07245	402.37863	-3509.94263	546.52509	400.33301	0.00000	0.00000	0.00000	-3511.33057	476.46609	399.55786	-3415.45361	423.62662	421.69385	-3385.43335	388.63736	419.58829	0.00000	0.00000	0.00000	-3421.15552	351.58020	419.26541	-3224.20654	161.20058	375.49905	-3256.34033	165.43491	281.61746	-3155.82104	158.11177	320.74716	-3292.29224	57.07296	402.99225	-3363.64331	63.79456	336.15216	-3327.09717	55.58591	288.86069	-3480.20435	985.10809	217.64824	-3643.83862	969.52094	136.13271	0.00000	0.00000	0.00000	-3733.22754	581.22937	95.22857	-3753.39331	652.68298	105.97932	-3766.18604	611.77832	110.35451	-3773.65259	523.69812	119.31036	-3746.04175	491.00629	223.38017	-3734.00000	403.66245	98.43142	0.00000	0.00000	0.00000	-3796.85938	414.80023	108.23411	-3801.93799	368.19138	107.38832	-3812.05518	109.31718	143.21637	-3829.15137	115.75580	234.12947	-3743.33398	69.75266	191.83295	-3965.21997	68.84357	224.10928	-3969.27173	82.36571	173.82004	-3928.09961	52.12644	109.93919
1305	10.86667	-3488.45703	971.81494	297.51907	-3670.44434	974.33679	366.75269	-3585.87354	581.92249	412.46823	-3577.04541	536.77917	406.32730	-3527.99634	591.22040	400.37943	-3526.63916	543.72314	398.45013	0.00000	0.00000	0.00000	-3528.89575	474.51025	397.68820	0.00000	0.00000	0.00000	-3399.42676	390.97836	416.82962	-3475.32739	379.38950	421.51337	-3434.11255	352.82504	417.85687	-3230.62061	168.68263	374.47693	-3265.29688	170.70616	282.25018	-3164.95312	168.90028	320.60229	-3294.97363	59.91174	403.20413	-3365.11548	64.22784	336.17834	-3329.54565	56.93021	288.66745	-3489.68701	985.39917	216.51575	-3653.45996	970.39478	134.66643	0.00000	0.00000	0.00000	-3741.47681	581.73065	94.24940	-3762.87134	652.71649	103.91512	-3775.42041	611.91022	108.72601	-3783.19214	524.30951	119.05139	-3755.52710	492.74344	223.22890	-3742.45020	405.17960	96.90125	-3761.85522	365.43973	97.54768	-3805.15674	414.99213	108.14268	-3809.18262	368.21393	107.51649	-3812.87573	109.55052	143.86060	-3829.81152	115.26842	234.58026	-3743.57593	70.00439	191.99850	-3965.54590	67.24005	224.36493	-3969.79004	80.96225	174.23972	-3928.41675	51.89848	109.88676
1306	10.87500	-3498.03198	971.44733	296.48337	-3680.43726	973.95795	365.07498	-3602.19531	579.83282	410.42966	-3594.30493	534.65271	404.32651	-3542.90381	587.55988	396.93622	-3543.78052	540.66187	396.54092	0.00000	0.00000	0.00000	-3546.95532	472.49506	395.73013	-3449.94849	426.86911	417.84259	-3413.79468	393.65649	414.93317	-3491.38379	380.28790	420.56201	-3453.31421	353.03485	417.13358	-3240.12842	175.58136	374.91333	-3275.29199	176.22922	283.05286	-3174.77002	180.26004	320.31738	-3297.06787	62.99569	402.98941	-3366.96924	64.91381	336.20422	-3332.04150	58.71875	288.45743	-3499.11182	985.80743	215.66701	-3662.62183	971.40308	133.10637	0.00000	0.00000	0.00000	-3750.11401	581.96393	93.29329	-3771.84448	652.68018	101.90829	-3784.11011	611.87610	107.09180	-3792.07886	524.96252	118.61697	-3764.93188	495.06778	223.27405	-3750.26978	406.51569	95.39510	-3768.54199	366.57867	96.44997	-3813.03149	415.44830	107.84697	-3816.15088	368.57559	107.27190	-3813.31958	109.64145	144.08099	-3830.18457	115.01315	234.62489	-3743.74170	70.10269	192.00487	-3965.89551	66.54433	224.25810	-3970.19385	80.06445	174.11282	-3928.51440	51.51455	109.55605
1307	10.88333	-3507.76074	970.88922	295.72174	-3690.20850	973.64062	363.39413	-3618.97974	577.94366	408.45660	-3611.73022	532.55188	402.16190	-3559.48145	584.46436	394.97473	-3561.08228	537.69427	394.41095	0.00000	0.00000	0.00000	-3565.44653	470.64648	393.78055	0.00000	0.00000	0.00000	-3432.90283	396.08902	414.06134	-3508.13794	381.76630	419.54565	-3468.95459	354.60751	415.81274	-3252.57812	182.31764	376.07733	-3285.99731	182.01970	283.84439	-3185.57007	192.40001	320.28906	-3298.85400	66.71650	402.34671	-3369.55273	66.00928	336.25940	-3335.28613	61.60706	288.30286	-3508.68384	986.07574	214.90489	-3671.66968	972.57465	131.45316	0.00000	0.00000	0.00000	-3757.65381	582.14185	92.28837	-3780.11035	652.44086	100.04115	-3792.14429	611.75195	105.36265	-3800.22900	525.26874	117.72680	-3773.67358	497.31696	222.85063	-3757.37646	407.71576	93.93053	-3774.74878	367.61191	95.17830	-3820.20435	415.78833	107.26155	-3822.54810	368.82700	106.62332	-3813.66455	109.64404	144.15327	-3830.31860	114.73711	234.65175	-3743.81934	70.09976	191.91704	-3966.00269	65.91518	224.34651	-3970.46680	79.34185	174.22279	-3928.58374	51.29119	109.37389
1308	10.89167	-3517.13232	970.48224	294.93240	-3699.72314	973.43073	361.87170	-3635.69678	576.12115	406.43774	-3629.22778	530.53217	400.03140	-3576.08154	581.43518	392.95917	-3578.70850	534.82727	392.29871	0.00000	0.00000	0.00000	-3584.26562	468.83908	391.76859	0.00000	0.00000	0.00000	-3450.53564	399.05499	412.25494	-3525.04321	383.29422	418.12589	-3485.32544	356.66678	414.55490	-3261.52466	191.13887	375.80615	-3297.21387	188.42863	284.40796	-3197.75024	204.79739	320.52139	-3302.61084	72.11951	402.18365	-3373.19897	67.47298	336.45621	-3338.89087	65.39230	288.29770	-3517.78003	986.40588	214.14429	-3680.44336	973.68744	129.93169	0.00000	0.00000	0.00000	-3766.39331	581.62762	90.98650	-3787.73218	652.03186	98.09035	-3799.62036	611.21021	104.34116	-3807.54736	525.34308	116.63880	-3780.93457	498.51727	221.85823	-3763.62524	408.53479	92.68899	-3780.20410	368.27261	94.01642	-3826.54810	415.73679	106.47418	-3828.09814	368.75891	105.82864	-3813.93140	109.63723	144.33733	-3830.46973	114.56744	234.68184	-3743.91919	70.10073	191.90366	-3966.17798	65.46793	224.33044	-3970.70190	78.79831	174.20697	-3927.14771	50.47419	108.11811
1309	10.90000	-3526.22095	969.96234	294.18427	-3708.87769	973.35400	360.42764	-3652.23315	574.39825	404.33746	-3646.63159	528.95575	397.17633	-3592.74829	578.62366	390.89511	-3596.41870	532.07373	390.00589	0.00000	0.00000	0.00000	-3603.10425	466.87680	389.80719	0.00000	0.00000	0.00000	-3468.56982	402.10837	410.23575	-3542.55298	384.76398	416.61230	-3502.03320	358.66406	413.08832	-3273.14355	200.13503	375.98627	-3308.71826	195.46631	284.54260	-3211.31177	217.41856	321.04828	-3307.59277	79.41197	402.47195	-3378.00781	69.55312	336.71643	-3343.37500	70.44563	288.58362	-3526.46313	986.69983	213.42076	-3689.18262	974.92517	128.46046	-3736.77197	625.00311	85.88412	0.00000	0.00000	0.00000	-3794.91772	651.57281	95.91642	-3806.51636	610.85809	102.10812	-3814.22583	525.18817	115.26105	-3787.67725	499.13400	220.54884	-3768.98022	409.19739	91.97006	-3784.85718	368.73978	93.37086	-3831.91699	415.22858	105.46193	-3832.69702	368.22269	105.02930	-3814.12720	109.63142	144.49728	-3830.59595	114.42738	234.72183	-3743.99365	70.15824	191.91759	-3966.33350	65.19527	224.26393	-3970.88770	78.35867	174.09254	-3927.21069	50.34870	107.92077
1310	10.90833	-3534.76855	969.74585	293.36011	-3717.77881	973.31964	359.08524	-3668.82251	573.11053	402.32089	-3664.04443	527.47351	394.78091	-3609.23511	576.09760	388.79666	-3612.67798	528.47314	386.60080	0.00000	0.00000	0.00000	-3622.01489	465.30844	387.93964	-3524.65991	434.74805	409.06628	-3487.09375	404.96744	408.19611	-3561.20239	386.94235	415.35681	-3519.61133	360.65652	411.61166	-3285.84058	210.01591	376.13272	-3320.81519	202.97839	284.20862	-3224.33496	230.55643	321.08115	-3314.14868	87.80231	402.53925	-3383.97021	72.00436	337.07880	-3348.81689	76.46536	289.17053	-3535.21997	987.03961	212.62781	-3697.65796	976.09381	127.16924	-3743.31885	625.11499	84.59075	0.00000	0.00000	0.00000	-3801.75659	651.26331	93.74630	-3812.91357	610.68719	99.32751	-3820.27051	524.82654	113.73916	-3794.51587	499.32913	219.29353	-3772.88574	409.15433	91.93340	-3788.62646	369.12643	93.05035	-3836.53076	414.48535	104.26164	-3836.36670	367.39368	104.16287	-3814.21606	109.60219	144.62640	-3830.64648	114.30843	234.75226	-3744.07129	70.24579	191.96761	-3966.41211	65.03033	224.25888	-3971.01807	78.01437	174.04626	-3927.24927	50.26779	107.79630
1311	10.91667	-3543.41187	969.39465	292.56772	-3726.29761	973.42657	357.83722	-3684.88110	572.07031	400.23044	-3681.18384	526.47626	392.32895	-3625.39185	574.02716	386.47147	-3629.91992	526.47815	384.05661	0.00000	0.00000	0.00000	-3640.82080	464.19479	385.97638	0.00000	0.00000	0.00000	-3506.00854	407.56473	406.35577	-3579.65454	388.46017	413.54633	-3537.30029	362.40353	409.78519	-3299.48804	220.20663	375.79993	-3323.35010	214.50336	280.48587	-3239.21045	243.86470	321.41479	-3322.24512	97.26642	402.73425	-3390.88721	74.38286	337.29111	-3354.81689	82.85905	289.74658	-3543.57129	987.37018	211.88406	-3705.98828	977.24976	125.99889	-3749.70337	625.40820	83.31627	0.00000	0.00000	0.00000	-3808.34375	651.05365	91.81368	-3819.26123	610.38721	97.50959	-3825.76392	524.39142	112.25567	-3801.31519	499.19116	218.30206	-3776.10083	409.30557	92.09509	0.00000	0.00000	0.00000	-3840.50928	413.82803	103.04037	-3839.26367	366.64175	103.25380	-3814.31836	109.64832	144.67519	-3830.69653	114.31326	234.74220	-3744.09277	70.25420	191.99477	-3966.44336	64.95050	224.19467	-3971.08447	77.78667	173.93724	-3927.22144	50.18689	107.67285
